<svg xmlns="http://www.w3.org/2000/svg" viewBox="0 0 149 26" enable-background="new 0 0 149 26"><g><path d="M9.5 1.2h-9.5v24.1h4.2v-7.8h4.8c5.3 0 9.7-2.8 9.7-8.2 0-4.9-3.5-8.1-9.2-8.1zm4.9 8.3c0 2.5-2 4.3-5.2 4.3h-5v-8.7h4.9c3.2 0 5.3 1.5 5.3 4.4z"/><path d="M26.7 11.3v-4.1h-4.2v18.2h4.2v-6.9c0-4.8 2.6-7.2 6.2-7.2h.2v-4.5c-3.1-.1-5.2 1.8-6.4 4.5z"/><path d="M44.9 6.8c-5.6 0-9.7 4.3-9.7 9.5v.1c0 5.2 4.1 9.4 9.7 9.4s9.8-4.3 9.8-9.5v-.1c-.1-5.2-4.2-9.4-9.8-9.4zm5.5 9.6c0 3.1-2.1 5.8-5.5 5.8-3.2 0-5.6-2.7-5.6-5.8v-.1c0-3.2 2.1-5.8 5.5-5.8 3.3-.1 5.6 2.6 5.6 5.9z"/><path d="M72.6 10c-1.3-1.7-3.2-3.2-6.2-3.2-4.3 0-8.5 3.4-8.5 9.5v.1c0 6 4.2 9.4 8.5 9.4 3 0 4.9-1.5 6.2-3.4v3h4.2v-25.2h-4.2v9.8zm0 6.3c0 3.5-2.5 5.8-5.3 5.8s-5.2-2.3-5.2-5.8v-.1c0-3.6 2.4-5.8 5.2-5.8 2.9 0 5.3 2.3 5.3 5.9z"/><path d="M94 17.4c0 2.8-1.7 4.5-4.1 4.5-2.5 0-3.9-1.6-3.9-4.4v-10.3h-4.2v11.6c0 4.2 2.4 7 6.5 7 2.8 0 4.5-1.5 5.7-3.2v2.8h4.2v-18.2h-4.2v10.2z"/><path d="M111 20.6l-4.9-13.4h-4.5l7.5 18.3h3.8l7.4-18.3h-4.3z"/><path d="M124 .4h4.5v4h-4.5z"/><path d="M124.1 7.2h4.2v18.2h-4.2z"/><path d="M147 9c-1.3-1.3-3.3-2-6-2-2.9 0-4.9.6-6.9 1.5l1.1 3.3c1.7-.7 3.2-1.1 5.2-1.1 2.9 0 4.5 1.4 4.5 4v.3c-1.4-.4-2.9-.8-4.9-.8-4.4 0-7.5 1.9-7.5 5.9v.1c0 3.7 3 5.6 6.4 5.6 2.8 0 4.7-1.2 5.9-2.7v2.3h4.1v-10.8c.1-2.4-.5-4.3-1.9-5.6zm-2 9.8c0 2.3-2.1 3.9-4.9 3.9-2 0-3.6-1-3.6-2.8v-.1c0-1.9 1.6-3 4.3-3 1.7 0 3.1.3 4.1.7v1.3z"/></g></svg>